<svg id="visual" viewBox="0 0 900 600" width="900" height="600" xmlns="http://www.w3.org/2000/svg" xmlns:xlink="http://www.w3.org/1999/xlink" version="1.1"><path d="M660 600L646.8 585.7C633.7 571.3 607.3 542.7 613.8 514.2C620.3 485.7 659.7 457.3 665.5 428.8C671.3 400.3 643.7 371.7 643.8 343C644 314.3 672 285.7 664.7 257C657.3 228.3 614.7 199.7 606.3 171.2C598 142.7 624 114.3 636.7 85.8C649.3 57.3 648.7 28.7 648.3 14.3L648 0L900 0L900 14.3C900 28.7 900 57.3 900 85.8C900 114.3 900 142.7 900 171.2C900 199.7 900 228.3 900 257C900 285.7 900 314.3 900 343C900 371.7 900 400.3 900 428.8C900 457.3 900 485.7 900 514.2C900 542.7 900 571.3 900 585.7L900 600Z" fill="#c62368"></path><path d="M670 600L674.8 585.7C679.7 571.3 689.3 542.7 680.3 514.2C671.3 485.7 643.7 457.3 648.3 428.8C653 400.3 690 371.7 690.3 343C690.7 314.3 654.3 285.7 651.8 257C649.3 228.3 680.7 199.7 696.2 171.2C711.7 142.7 711.3 114.3 698.7 85.8C686 57.3 661 28.7 648.5 14.3L636 0L900 0L900 14.3C900 28.7 900 57.3 900 85.8C900 114.3 900 142.7 900 171.2C900 199.7 900 228.3 900 257C900 285.7 900 314.3 900 343C900 371.7 900 400.3 900 428.8C900 457.3 900 485.7 900 514.2C900 542.7 900 571.3 900 585.7L900 600Z" fill="#d53867"></path><path d="M738 600L739.2 585.7C740.3 571.3 742.7 542.7 745.3 514.2C748 485.7 751 457.3 757.3 428.8C763.7 400.3 773.3 371.7 764.2 343C755 314.3 727 285.7 707.5 257C688 228.3 677 199.7 678 171.2C679 142.7 692 114.3 693.2 85.8C694.3 57.3 683.7 28.7 678.3 14.3L673 0L900 0L900 14.3C900 28.7 900 57.3 900 85.8C900 114.3 900 142.7 900 171.2C900 199.7 900 228.3 900 257C900 285.7 900 314.3 900 343C900 371.7 900 400.3 900 428.8C900 457.3 900 485.7 900 514.2C900 542.7 900 571.3 900 585.7L900 600Z" fill="#e34c67"></path><path d="M827 600L820.5 585.7C814 571.3 801 542.7 793.5 514.2C786 485.7 784 457.3 777.3 428.8C770.7 400.3 759.3 371.7 755 343C750.7 314.3 753.3 285.7 761.2 257C769 228.3 782 199.7 780.2 171.2C778.3 142.7 761.7 114.3 750.5 85.8C739.3 57.3 733.7 28.7 730.8 14.3L728 0L900 0L900 14.3C900 28.7 900 57.3 900 85.8C900 114.3 900 142.7 900 171.2C900 199.7 900 228.3 900 257C900 285.7 900 314.3 900 343C900 371.7 900 400.3 900 428.8C900 457.3 900 485.7 900 514.2C900 542.7 900 571.3 900 585.7L900 600Z" fill="#ef5f67"></path><path d="M817 600L815 585.7C813 571.3 809 542.7 813.3 514.2C817.7 485.7 830.3 457.3 829.7 428.8C829 400.3 815 371.7 811 343C807 314.3 813 285.7 813.8 257C814.7 228.3 810.3 199.7 805.8 171.2C801.3 142.7 796.7 114.3 804 85.8C811.3 57.3 830.7 28.7 840.3 14.3L850 0L900 0L900 14.3C900 28.7 900 57.3 900 85.8C900 114.3 900 142.7 900 171.2C900 199.7 900 228.3 900 257C900 285.7 900 314.3 900 343C900 371.7 900 400.3 900 428.8C900 457.3 900 485.7 900 514.2C900 542.7 900 571.3 900 585.7L900 600Z" fill="#fa7268"></path></svg>