<?xml version="1.0" standalone="no"?>
<!DOCTYPE svg PUBLIC "-//W3C//DTD SVG 20010904//EN"
 "http://www.w3.org/TR/2001/REC-SVG-20010904/DTD/svg10.dtd">
<svg version="1.0" xmlns="http://www.w3.org/2000/svg"
 width="1384.000000pt" height="1038.000000pt" viewBox="0 0 1384.000000 1038.000000"
 preserveAspectRatio="xMidYMid meet">

<g transform="translate(0.000000,1038.000000) scale(0.100000,-0.100000)"
fill="#000000" stroke="none">
<path d="M1006 9884 c-4 -9 -4 -19 -1 -22 2 -3 7 3 11 12 4 9 4 19 1 22 -2 3
-7 -3 -11 -12z"/>
<path d="M7852 9822 c-13 -9 -72 -184 -72 -217 0 -27 18 -45 46 -45 31 0 38
13 73 124 28 92 30 102 16 123 -16 23 -40 29 -63 15z"/>
<path d="M930 9760 c-27 -52 -12 -52 18 0 12 22 18 40 13 40 -6 0 -20 -18 -31
-40z"/>
<path d="M866 9631 c-9 -16 -16 -38 -15 -48 0 -10 9 2 20 26 22 50 18 68 -5
22z"/>
<path d="M8145 9510 c-41 -45 -9 -120 51 -120 58 0 89 92 42 124 -31 22 -71
20 -93 -4z"/>
<path d="M807 9483 c-3 -16 -9 -36 -12 -45 -4 -10 -3 -18 3 -18 5 0 13 12 16
28 4 15 9 35 12 45 3 9 1 17 -4 17 -5 0 -12 -12 -15 -27z"/>
<path d="M770 9303 c0 -55 5 -54 14 5 4 26 2 42 -4 42 -5 0 -10 -21 -10 -47z"/>
<path d="M7690 9264 c-90 -32 -150 -98 -150 -165 0 -48 16 -92 58 -161 31 -53
34 -63 31 -120 -9 -172 6 -281 46 -333 15 -20 16 -19 50 19 l35 39 0 -114 c0
-133 20 -281 44 -327 18 -35 90 -113 119 -128 16 -9 16 -17 6 -94 -11 -85 -31
-136 -49 -125 -6 4 -10 1 -10 -4 0 -22 -46 -9 -82 23 -21 18 -67 82 -104 142
-37 60 -87 135 -112 168 l-45 58 -50 -6 c-135 -18 -351 -115 -499 -225 -103
-75 -186 -192 -312 -437 -25 -49 -46 -95 -46 -101 0 -18 166 -169 252 -229 58
-42 78 -62 83 -85 10 -46 8 -126 -6 -167 -25 -77 -108 -170 -195 -219 l-39
-21 -1 96 c0 116 -12 152 -119 379 -74 156 -76 164 -91 284 -22 181 -67 297
-152 391 -115 128 -308 177 -458 116 -129 -52 -272 -176 -323 -279 -32 -66
-56 -177 -47 -215 5 -17 -3 -29 -33 -54 -71 -55 -85 -90 -92 -220 -7 -132 -36
-231 -67 -224 -13 3 -55 -58 -182 -263 -228 -368 -326 -537 -351 -602 -11 -30
-23 -92 -27 -136 -17 -188 1 -217 118 -196 68 13 167 53 221 92 35 25 35 34 7
-159 -18 -132 -20 -155 -7 -163 23 -14 26 -11 37 34 l11 42 -6 -47 c-3 -30 -1
-48 5 -48 6 0 13 8 16 18 73 249 124 432 151 550 52 228 56 244 81 294 27 56
70 111 222 286 128 147 143 154 124 50 -6 -34 -8 -66 -4 -70 4 -4 38 1 75 11
59 16 66 16 55 2 -7 -8 -47 -57 -89 -107 -193 -231 -320 -452 -362 -629 -20
-82 -62 -333 -71 -421 l-7 -62 32 -11 c18 -6 33 -10 34 -9 1 2 21 57 44 123
59 165 184 417 276 555 64 97 74 118 65 133 -14 23 -18 19 50 43 l55 19 49
132 c27 73 51 131 53 129 2 -2 -18 -64 -44 -137 l-48 -134 -53 -19 c-43 -15
-50 -21 -41 -33 10 -11 2 -28 -38 -86 -70 -102 -147 -239 -225 -402 -62 -131
-136 -321 -127 -329 10 -8 297 -98 418 -131 149 -41 479 -110 571 -121 l60 -7
29 64 c31 68 111 311 111 336 0 11 5 13 18 8 132 -57 329 -79 456 -50 70 15
80 15 93 2 26 -26 -8 -36 -232 -71 -16 -2 20 -3 80 -1 67 2 127 9 154 19 l43
16 52 -43 c109 -92 178 -139 187 -130 6 6 -14 50 -56 121 -36 61 -65 115 -65
121 0 6 11 26 24 46 14 20 30 60 37 90 10 45 14 52 24 39 10 -14 15 -12 38 15
41 50 50 98 41 240 -4 69 -6 137 -5 151 5 48 42 113 109 194 86 102 99 123
123 198 23 74 24 127 3 199 -33 111 -111 226 -136 201 -14 -14 -225 -17 -246
-4 -9 6 -2 32 32 105 24 54 46 100 49 103 3 3 -2 23 -10 44 -30 76 13 122 81
87 24 -13 41 -14 76 -7 77 16 89 13 106 -22 20 -41 55 -68 98 -75 48 -8 88 30
95 90 l6 45 44 -39 44 -40 -21 -20 c-12 -11 -22 -32 -22 -47 0 -15 -7 -38 -16
-51 -14 -19 -23 -22 -55 -18 -29 4 -36 2 -32 -9 3 -8 16 -17 29 -20 13 -3 24
-10 24 -14 0 -14 -69 -69 -105 -85 -19 -7 -35 -20 -35 -28 0 -23 30 -118 57
-185 l26 -62 127 1 c129 1 140 -1 232 -49 4 -2 8 74 8 170 0 95 4 212 9 260 9
84 11 88 50 124 76 68 161 221 161 289 0 12 -48 98 -106 191 -58 93 -124 203
-146 244 -23 41 -48 83 -56 92 -13 15 -13 20 2 42 11 17 16 47 16 94 0 47 7
91 23 133 17 49 21 81 19 135 l-3 71 -55 6 c-31 3 -67 2 -81 -4 -35 -13 -96
-11 -116 4 -23 16 -47 108 -47 177 0 86 48 256 67 237 2 -3 -1 -15 -7 -27 -6
-11 -10 -31 -8 -43 3 -19 7 -16 25 19 37 69 82 75 212 29 57 -20 107 -19 156
4 43 19 100 78 116 118 32 85 -23 234 -105 284 -43 26 -75 24 -163 -11 -99
-40 -127 -38 -226 12 -96 49 -171 59 -247 32z m714 -316 c-53 -106 -139 -133
-275 -86 -79 28 -50 37 42 14 75 -20 102 -20 138 -2 37 20 89 80 98 114 5 18
8 22 11 10 2 -9 -4 -32 -14 -50z m-581 -178 c-1 -8 -13 -46 -26 -85 -26 -71
-39 -81 -64 -48 -27 35 -6 128 31 143 30 13 61 8 59 -10z m35 -1353 c8 -9 8
-23 -1 -49 -12 -34 -14 -35 -37 -22 -61 33 -125 3 -139 -68 -6 -29 -11 -33
-51 -40 -25 -4 -59 -10 -76 -13 l-32 -6 10 43 c13 58 33 78 78 78 47 0 138 31
187 64 43 30 47 31 61 13z m37 -68 c-4 -13 -2 -19 9 -19 9 0 16 -8 16 -19 0
-11 4 -22 9 -25 5 -3 11 -17 13 -31 10 -50 -40 -19 -62 39 -12 32 -4 90 11 80
5 -3 7 -14 4 -25z m-1727 7 c126 -66 131 -241 9 -296 -109 -50 -221 9 -234
123 -7 60 11 110 53 147 53 46 79 39 28 -8 -80 -73 -82 -177 -4 -230 29 -20
44 -23 93 -20 46 4 63 10 87 33 41 39 56 91 41 138 -15 43 -71 96 -112 104
-16 3 -32 10 -35 14 -8 14 44 10 74 -5z m-629 -77 c-13 -32 -6 -49 21 -49 26
0 34 -35 27 -112 -7 -80 -17 -88 -62 -54 -68 52 -115 103 -115 124 0 11 28 53
62 93 58 67 62 70 70 48 6 -14 4 -33 -3 -50z m2288 28 c33 -30 47 -80 33 -121
-18 -56 -75 -64 -120 -16 -49 53 -45 140 8 158 32 11 49 6 79 -21z m-2257
-427 c-32 -24 -37 -18 -15 16 13 20 20 23 28 15 9 -9 6 -17 -13 -31z m-40
-271 c-149 -145 -172 -172 -157 -180 24 -14 21 -28 -6 -34 -21 -6 -28 -33
-112 -412 -49 -223 -91 -401 -92 -396 -2 5 34 189 81 408 63 301 88 400 100
407 14 8 15 12 4 25 -10 13 5 31 102 121 63 59 144 135 180 169 36 35 67 62
70 62 3 0 -74 -77 -170 -170z m499 -48 c-6 -18 -13 -30 -15 -28 -2 2 1 18 7
36 6 18 13 30 15 28 2 -2 -1 -18 -7 -36z m1330 -963 c-18 -36 -31 -48 -41 -42
-5 3 3 19 18 35 33 35 38 36 23 7z m-1113 -35 c-2 -10 -7 -31 -11 -48 -4 -19
-20 -40 -44 -57 -47 -33 -51 -34 -51 -8 0 32 26 76 62 104 39 30 51 33 44 9z"/>
<path d="M7772 7290 c-18 -11 -32 -24 -32 -30 0 -15 16 -12 30 5 7 8 18 15 26
15 16 0 27 17 16 24 -5 3 -23 -4 -40 -14z"/>
<path d="M7796 7253 c-12 -12 -6 -33 9 -33 8 0 15 6 15 14 0 17 -14 28 -24 19z"/>
<path d="M764 9168 c3 -13 6 -33 6 -45 0 -13 3 -23 8 -23 4 0 6 20 4 45 -2 25
-9 45 -14 45 -6 0 -8 -10 -4 -22z"/>
<path d="M2250 9061 c0 -5 18 -11 40 -13 47 -4 54 7 9 16 -42 8 -49 8 -49 -3z"/>
<path d="M2103 9050 c-13 -5 -23 -12 -23 -14 0 -6 57 4 85 15 17 6 15 8 -10 8
-16 0 -40 -4 -52 -9z"/>
<path d="M796 9008 c15 -49 25 -71 30 -65 8 8 -18 87 -28 87 -5 0 -6 -10 -2
-22z"/>
<path d="M2400 9025 c0 -10 60 -68 65 -63 7 7 -24 47 -46 58 -10 6 -19 8 -19
5z"/>
<path d="M1967 8999 c-22 -11 -37 -23 -34 -25 5 -6 87 33 87 41 0 9 -14 4 -53
-16z"/>
<path d="M1833 8919 c-18 -12 -33 -25 -33 -30 0 -5 18 3 40 17 22 15 40 28 40
30 0 9 -17 2 -47 -17z"/>
<path d="M2457 8856 c-10 -22 -16 -44 -14 -50 6 -17 39 53 34 72 -2 11 -9 4
-20 -22z"/>
<path d="M878 8849 c11 -18 27 -36 33 -38 7 -2 3 11 -9 30 -11 18 -27 36 -33
38 -7 2 -3 -11 9 -30z"/>
<path d="M1705 8810 c-16 -16 -25 -33 -22 -37 4 -3 8 -4 10 -2 1 2 15 19 31
37 37 40 20 43 -19 2z"/>
<path d="M7172 8817 c-28 -29 -28 -57 -1 -91 40 -50 119 -21 119 44 0 63 -75
93 -118 47z"/>
<path d="M990 8730 c19 -17 39 -30 45 -30 5 1 -6 14 -25 30 -19 17 -39 30 -45
30 -5 -1 6 -14 25 -30z"/>
<path d="M2361 8719 c-19 -16 -32 -31 -29 -35 3 -3 21 8 40 24 43 39 33 49
-11 11z"/>
<path d="M1603 8687 c-13 -18 -23 -37 -23 -43 0 -9 33 28 51 59 18 31 -5 18
-28 -16z"/>
<path d="M8069 8663 c-13 -15 -11 -16 11 -10 14 4 35 7 48 7 12 0 22 5 22 10
0 17 -66 11 -81 -7z"/>
<path d="M8233 8673 c-24 -9 -13 -19 22 -20 36 -1 47 10 19 21 -18 7 -23 7
-41 -1z"/>
<path d="M1100 8655 c0 -2 18 -14 40 -25 22 -11 40 -17 40 -12 0 5 -16 16 -35
25 -38 18 -45 20 -45 12z"/>
<path d="M2225 8628 c-22 -12 -35 -23 -28 -25 13 -5 68 22 78 37 9 15 -6 11
-50 -12z"/>
<path d="M8234 8629 c-10 -17 13 -36 27 -22 12 12 4 33 -11 33 -5 0 -12 -5
-16 -11z"/>
<path d="M8100 8616 c0 -8 4 -17 9 -20 11 -7 33 18 24 27 -12 12 -33 7 -33 -7z"/>
<path d="M1240 8586 c0 -2 20 -11 45 -19 25 -9 45 -12 45 -7 0 4 -14 13 -31
19 -32 11 -59 14 -59 7z"/>
<path d="M1515 8550 c-25 -56 -14 -60 13 -5 12 25 18 45 13 45 -4 0 -16 -18
-26 -40z"/>
<path d="M7488 8578 c-18 -14 -68 -171 -68 -211 0 -25 23 -57 40 -57 23 0 50
44 74 121 31 103 32 121 8 142 -22 20 -33 21 -54 5z"/>
<path d="M2078 8567 c-21 -6 -38 -15 -38 -20 0 -5 7 -6 16 -3 9 3 21 6 28 6 7
0 21 7 32 15 22 16 15 17 -38 2z"/>
<path d="M1400 8541 c0 -9 48 -21 79 -21 14 1 14 2 1 9 -23 13 -80 21 -80 12z"/>
<path d="M1925 8533 c-33 -5 -59 -23 -33 -23 31 0 78 13 78 21 0 5 -3 8 -7 8
-5 -1 -21 -4 -38 -6z"/>
<path d="M1565 8510 c3 -5 24 -10 46 -10 24 0 38 4 34 10 -3 6 -24 10 -46 10
-24 0 -38 -4 -34 -10z"/>
<path d="M1755 8510 l-40 -7 48 -2 c26 0 47 4 47 9 0 6 -3 9 -7 9 -5 -1 -26
-5 -48 -9z"/>
<path d="M1466 8418 c-3 -13 -6 -34 -6 -48 1 -32 15 -9 23 38 7 36 -7 44 -17
10z"/>
<path d="M1458 8273 c-2 -5 -1 -28 3 -53 l6 -45 1 53 c2 48 -2 63 -10 45z"/>
<path d="M1478 8115 c-8 -8 12 -85 22 -85 5 0 4 17 -1 38 -6 20 -11 41 -12 45
-1 5 -5 6 -9 2z"/>
<path d="M1520 7956 c0 -15 32 -76 40 -76 6 0 1 18 -10 40 -18 34 -30 49 -30
36z"/>
<path d="M1590 7804 c0 -11 42 -75 47 -71 6 7 -29 77 -39 77 -4 0 -8 -3 -8 -6z"/>
<path d="M1688 7639 c11 -18 27 -36 33 -38 7 -2 3 11 -9 30 -11 18 -27 36 -33
38 -7 2 -3 -11 9 -30z"/>
<path d="M10286 7597 c-13 -10 -18 -34 -23 -117 -11 -168 -9 -215 10 -244 43
-65 69 -9 51 112 -7 48 10 59 27 15 l10 -27 21 21 21 21 54 -44 c55 -45 80
-53 101 -32 43 43 -40 188 -108 188 -8 0 -37 27 -63 60 -48 61 -69 70 -101 47z"/>
<path d="M1770 7535 c1 -16 50 -68 58 -61 3 4 -8 21 -26 39 -18 17 -32 27 -32
22z"/>
<path d="M1896 7385 c25 -33 44 -45 44 -27 0 10 -53 62 -64 62 -4 0 5 -16 20
-35z"/>
<path d="M2015 7270 c16 -16 33 -30 39 -30 5 0 -3 14 -19 30 -16 17 -33 30
-39 30 -5 0 3 -13 19 -30z"/>
<path d="M10425 7280 c3 -5 8 -10 11 -10 2 0 4 5 4 10 0 6 -5 10 -11 10 -5 0
-7 -4 -4 -10z"/>
<path d="M10480 7243 c0 -4 5 -15 10 -23 8 -13 10 -13 10 2 0 9 -4 20 -10 23
-5 3 -10 3 -10 -2z"/>
<path d="M2138 7170 c18 -17 38 -30 45 -30 14 1 -53 59 -68 59 -5 0 5 -13 23
-29z"/>
<path d="M2250 7101 c0 -5 16 -18 36 -30 38 -23 48 -26 40 -12 -9 14 -76 51
-76 42z"/>
<path d="M10457 7099 c7 -7 15 -10 18 -7 3 3 -2 9 -12 12 -14 6 -15 5 -6 -5z"/>
<path d="M2640 7021 l0 -80 473 -240 c259 -132 468 -240 462 -240 -5 0 -242
58 -525 129 -283 71 -516 128 -517 126 -1 -1 5 -26 14 -54 12 -37 23 -54 38
-57 48 -11 945 -147 989 -150 27 -2 45 0 40 4 -13 12 -965 641 -970 641 -2 0
-4 -36 -4 -79z"/>
<path d="M7428 7001 c-21 -47 -38 -90 -38 -94 0 -4 41 -7 90 -7 50 0 90 4 90
9 0 4 -9 20 -20 34 -11 14 -20 30 -20 36 0 17 -36 86 -52 98 -10 9 -21 -7 -50
-76z"/>
<path d="M8055 6039 c-36 -23 -73 -24 -103 -3 -21 14 -22 14 -22 -9 0 -137 84
-305 193 -384 29 -21 54 -42 56 -46 2 -5 26 -39 53 -75 l49 -65 -69 -71 c-39
-39 -94 -109 -124 -156 -30 -47 -74 -102 -98 -124 l-42 -38 38 6 c22 3 109 15
194 27 298 39 790 150 790 178 0 29 -37 136 -66 191 -46 88 -67 107 -204 180
-133 71 -363 224 -536 356 -39 30 -73 54 -75 53 -2 0 -17 -9 -34 -20z"/>
<path d="M8410 5857 c0 -7 145 -99 226 -143 101 -55 74 -34 -57 44 -63 37
-126 76 -141 86 -16 10 -28 16 -28 13z"/>
<path d="M7446 5065 c-4 -10 1 -15 16 -15 17 0 18 2 8 15 -7 8 -14 15 -15 15
-2 0 -5 -7 -9 -15z"/>
<path d="M4490 3581 l0 -289 330 -917 330 -916 -9 -107 c-6 -59 -20 -138 -31
-176 -21 -68 -34 -86 -110 -151 -93 -81 -115 -137 -58 -149 64 -13 233 24 311
67 33 18 40 29 58 91 11 39 26 89 33 111 l13 40 18 -75 c9 -41 23 -81 29 -88
16 -17 48 -4 42 17 -10 32 -28 147 -36 227 -9 82 -41 178 -65 192 -16 9 -34
145 -85 667 -22 226 -51 476 -65 556 -21 123 -73 332 -101 404 -8 19 -7 20 19
2 15 -9 224 -144 464 -299 241 -154 455 -297 477 -317 60 -56 157 -181 182
-236 17 -35 24 -68 24 -110 0 -83 17 -176 34 -193 13 -13 18 -13 41 2 54 36
155 235 155 307 0 23 -17 57 -61 121 -33 48 -58 88 -56 88 2 0 38 -15 78 -34
53 -25 77 -31 86 -24 25 20 11 34 -92 91 -58 32 -108 63 -111 69 -10 15 -130
68 -155 68 -13 0 -30 7 -39 15 -9 8 -93 31 -188 52 l-172 38 0 135 0 136 -258
251 c-258 250 -259 251 -345 287 -137 57 -327 149 -508 246 -91 50 -169 90
-172 90 -4 0 -7 -130 -7 -289z"/>
<path d="M8925 3462 c-44 -14 -82 -28 -84 -29 -8 -6 40 -146 71 -207 32 -64
107 -150 150 -172 41 -21 84 -18 102 8 31 43 17 195 -29 341 -20 60 -29 70
-38 37 -8 -29 -24 -24 -49 15 -13 19 -27 34 -33 34 -5 0 -46 -13 -90 -27z"/>
<path d="M8318 3303 c-16 -4 -18 -18 -17 -131 1 -143 0 -144 53 50 l24 88 -21
-1 c-12 -1 -30 -3 -39 -6z"/>
<path d="M8038 2606 c-43 -7 -80 -14 -83 -17 -6 -7 45 -62 70 -76 18 -11 18
-13 -10 -54 -25 -35 -30 -54 -33 -115 -2 -40 3 -115 11 -166 9 -51 21 -140 27
-198 18 -166 67 -274 143 -315 42 -23 61 -16 89 31 23 40 38 175 31 279 -6 87
-6 87 -25 64 -18 -23 -19 -23 -33 -5 -8 10 -22 53 -31 95 -15 66 -16 89 -6
171 20 162 12 245 -29 273 -12 9 -17 20 -13 31 7 19 3 19 -108 2z"/>
<path d="M8356 2593 c-15 -30 -46 -129 -46 -148 0 -12 153 -49 237 -58 89 -10
69 39 -61 146 -57 48 -107 87 -110 87 -3 0 -12 -12 -20 -27z"/>
</g>
</svg>
